<svg xmlns="http://www.w3.org/2000/svg" viewBox="0 0 334.92 293.89"><defs><style>.cls-1{fill:#fff;}</style></defs><g id="Layer_2" data-name="Layer 2"><g id="Capa_1" data-name="Capa 1"><path class="cls-1" d="M300.92,46.54c-25.17,1.07-48.91,7.35-70.85,19.82A162.31,162.31,0,0,0,184,105.51a144.82,144.82,0,0,0-13.66,19.25c-.53.93-1.85,1.8-1.09,3s2.16,1.17,3.44,1.19a179.63,179.63,0,0,0,25.09-.89,171.22,171.22,0,0,0,38.39-9.26,230.08,230.08,0,0,0,60.3-33.64,272.5,272.5,0,0,0,36.68-33c.73-.8,2.19-1.54,1.7-2.75s-2.16-1.08-3.37-1.23A181.16,181.16,0,0,0,300.92,46.54Z"/><path class="cls-1" d="M269.18,151.07a226.94,226.94,0,0,0,32.31-10.31c1.1-.45,2.84-.55,2.84-2,0-1.24-1.66-1.39-2.63-1.91a103.93,103.93,0,0,0-46.34-12.42c-24.1-.69-46,6.2-66.23,19.12-1.77,1.12-3.4,2.1-.54,3.79,5.7.8,10.86,3.42,16.44,4.76,15.44,3.72,30.93,3.36,46.49,1.65C257.43,153.05,263.3,152,269.18,151.07Z"/><path class="cls-1" d="M159.23,114.08c1.61,3.12,3,.29,3.84-.44A98.32,98.32,0,0,0,182,92c13.66-21,20.68-44.23,24.09-68.76.55-4,1-7.95,1.39-11.94.12-1.17.82-2.81-.47-3.44s-2.3.73-3.28,1.45a109.81,109.81,0,0,0-18.33,16.53,25.9,25.9,0,0,1-2.54,2.24,11.34,11.34,0,0,1-1.66,3.34C167.89,49,160.85,68.89,159.09,90.73,158.46,98.51,159.17,106.3,159.23,114.08Z"/><path class="cls-1" d="M269.18,151.07c-5.88.89-11.75,2-17.66,2.64-15.56,1.71-31.05,2.07-46.49-1.65-5.58-1.34-10.74-4-16.44-4.76.58,1.9,2.15,3,3.59,4.07,13.91,10.58,29.52,17.28,46.55,21.18a220.31,220.31,0,0,0,37.09,4.84c7.46.41,14.92-.17,22.37-.54,1,0,2.22-.25,2.57-1.38s-.63-1.62-1.29-2.25C290.38,164.47,280.73,156.47,269.18,151.07Z"/><path class="cls-1" d="M159.23,114.08c-.06-7.78-.77-15.57-.14-23.35,1.76-21.84,8.8-41.76,22.15-59.28a11.34,11.34,0,0,0,1.66-3.34c-.67-8.21-.66-16.48-2-24.66-.19-1.23,0-3-1.15-3.37s-2,1.14-2.76,2.1C163.76,18.39,156.17,37,153.44,57.68a125.91,125.91,0,0,0,3.18,49C157.28,109.23,158.35,111.63,159.23,114.08Z"/><path class="cls-1" d="M251.1,30.32c-18.32.81-31.36,9.09-41.12,23.1-.46.65-1.12,1.43-.77,2.17.52,1.12,1.74.87,2.75.86,12.75-.08,23.93-4.74,34.24-11.87a79.36,79.36,0,0,0,12.58-10.64c.65-.69,2-1.32,1.42-2.46-.48-.95-1.81-.83-2.83-.89C255,30.46,252.56,30.38,251.1,30.32Z"/><path class="cls-1" d="M322.75,86c-17,.73-30,8.46-39.67,22.11-.69,1-1.83,2.13-1.28,3.28s2.08.6,3.18.59c13.26-.19,24.7-5.37,35.22-13A80.19,80.19,0,0,0,331.56,89c1.55-1.64,1.38-2.52-.91-2.67C328,86.19,325.38,86.12,322.75,86Z"/><path class="cls-1" d="M195.74,217.69c-5.43-9.68-14.53-16.06-21.66-24.21-9.18-10.48-20-19.48-28.1-30.9a44.41,44.41,0,0,1-5.69-11.3c-1.54-4.46-2.87-9.69.73-12.66a15.77,15.77,0,0,1,15.75-2.69,61.91,61.91,0,0,1,22,15.26C215.12,189,234,233.94,234.18,286.56a17.63,17.63,0,0,1-.24,3.71c-.14.67-.83,1.22-2.58,3.62-3.35-23.4-13.79-42.47-24.55-61.4C204.1,226.83,199.37,222.67,195.74,217.69Z"/><path class="cls-1" d="M60.27,94.23c15.81-4.7,31.08-6.82,46.75-3.55,11.77,2.45,22.57,18.52,10.88,30.77-2.05,2.15-3.76,4.62-5.81,6.78-11.4,12-17.18,26.1-16.21,42.77.07,1.2.35,2.46-1.17,3.65-3.6-5.85-5-12.27-6.06-18.88-1.6-10.09-2.13-20.29-4-30.39C82.49,113.9,76.7,105.73,67,99.88,64.73,98.49,62.3,97.33,60.27,94.23Z"/><path class="cls-1" d="M105.7,148.65c5.71-8.11,14.84-8.36,21.53-1.35s8.4,16.21,8.07,25.4c-.49,13.82.15,27.07,10,38,1.16,1.29,1.55,3,.38,4.21-.61.61-2.44.45-3.52.08-19.7-6.82-38.86-33-39.4-53.78A24,24,0,0,1,105.7,148.65Z"/><path class="cls-1" d="M143.2,107.54a2.87,2.87,0,0,1-1.73,3.8c-2,.94-2.58-1.09-3.22-2.23-3.64-6.52-7.16-13.1-10.68-19.69-6.1-11.46-12.84-22.15-27.32-24.16a38,38,0,0,0-18.28,2c-1.76.62-3.26.29-3.84-1.06-.74-1.7,1-2.37,2.31-3,11-5.27,22.37-8.72,34.64-7.27,11.47,1.37,19.39,8.91,21.82,20.49C139.08,86.84,137.3,98.05,143.2,107.54Z"/><path class="cls-1" d="M77.21,79.44C68.11,92.11,14.68,93.54,0,84.83,26.14,78.25,51.14,74.75,77.21,79.44Z"/><path class="cls-1" d="M196,249.21c-9.63-11.3-22.32-18.14-33.49-26.84-8.42-6.57-12.57-17.11-7.87-20.87,8.4-6.72,15.3-.9,21.85,4.28C190.36,216.78,195.2,232,196,249.21Z"/><path class="cls-1" d="M101.15,77.31c-1.26,5.27-4.09,7.51-8.58,7.38-3.67-.1-5.87-2.45-6.91-5.72a6.91,6.91,0,0,1,2.39-8c1.84-1.37,5-4,5.2,1.46C93.45,77.57,97.17,77.74,101.15,77.31Z"/></g></g></svg>